<?xml version="1.0" encoding="utf-8"?>
<!-- Generator: Adobe Illustrator 26.2.1, SVG Export Plug-In . SVG Version: 6.00 Build 0)  -->
<svg version="1.1" id="Layer_1" xmlns="http://www.w3.org/2000/svg" xmlns:xlink="http://www.w3.org/1999/xlink" x="0px" y="0px"
	 viewBox="0 0 376.9 212" style="enable-background:new 0 0 376.9 212;" xml:space="preserve">
<g>
	<path d="M178.9,87.1H152c-5.5,0-10,4.5-10,10v18.8c0,5.5,4.5,10,10,10h26.9c5.5,0,10-4.5,10-10V97.1
		C188.9,91.6,184.4,87.1,178.9,87.1z M180,115.9c0,0.6-0.5,1.1-1.1,1.1H152c-0.6,0-1.1-0.5-1.1-1.1V97.1c0-0.6,0.5-1.1,1.1-1.1h26.9
		c0.6,0,1.1,0.5,1.1,1.1V115.9z"/>
	<path d="M265.6,73h-8.9v14.1H251V96h5.8v1.1v18.8c0,5.5,4.5,10,10,10h16V117h-16c-0.6,0-1.1-0.5-1.1-1.1V97.1V96h17.2v-8.9h-17.2
		V73z"/>
	<path d="M326.4,87.1h-26.9c-5.5,0-10,4.5-10,10v18.8c0,5.5,4.5,10,10,10h26.9c5.5,0,10-4.5,10-10V97.1
		C336.3,91.6,331.9,87.1,326.4,87.1z M327.5,115.9c0,0.6-0.5,1.1-1.1,1.1h-26.9c-0.6,0-1.1-0.5-1.1-1.1V97.1c0-0.6,0.5-1.1,1.1-1.1
		h26.9c0.6,0,1.1,0.5,1.1,1.1V115.9z"/>
	<path d="M234.8,87.1h-26.9h-10v10c0,0,0,18.8,0,18.8c0,0,0,0,0,0V140h8.9v-14.2c0.4,0,0.7,0.1,1.1,0.1h26.9c5.5,0,10-4.5,10-10
		V97.1C244.7,91.6,240.3,87.1,234.8,87.1z M235.9,115.9c0,0.6-0.5,1.1-1.1,1.1h-26.9c-0.1,0-0.2,0-0.3-0.1c0,0-0.1,0-0.1,0
		c-0.4-0.2-0.7-0.6-0.7-1V97.1c0-0.5,0.3-0.9,0.7-1c0,0,0.1,0,0.1,0c0.1,0,0.2-0.1,0.3-0.1l26.9,0c0.6,0,1.1,0.5,1.1,1.1V115.9z"/>
</g>
<g>
	<path d="M67.3,70.8h36.5c4.5,0,8.2,3.7,8.2,8.2v36.5H95.7V89.1c0-1.1-0.9-2-2-2H67.3V70.8z"/>
	<path d="M56.9,123.9V72.3L40.6,88.6v45.4c0,4.5,3.7,8.2,8.2,8.2h45.4l16.3-16.3H58.9C57.8,125.9,56.9,125,56.9,123.9z"/>
</g>
</svg>
